<svg width="151" height="29" viewBox="0 0 151 29" fill="none" xmlns="http://www.w3.org/2000/svg">
<g filter="url(#filter0_dd_1_4204)">
<g clip-path="url(#clip0_1_4204)">
<rect x="3" y="2" width="24" height="24" rx="6" fill="white"/>
<rect x="3" y="2" width="24" height="24" rx="6" fill="url(#paint0_linear_1_4204)"/>
<path fill-rule="evenodd" clip-rule="evenodd" d="M15 3.52912C9.21708 3.52912 4.52911 8.21709 4.52911 14C4.52911 19.7829 9.21708 24.4709 15 24.4709C20.7829 24.4709 25.4709 19.7829 25.4709 14C25.4709 8.21709 20.7829 3.52912 15 3.52912ZM4.47086 14C4.47086 8.18492 9.18491 3.47087 15 3.47087C20.8151 3.47087 25.5291 8.18492 25.5291 14C25.5291 19.8151 20.8151 24.5291 15 24.5291C9.18491 24.5291 4.47086 19.8151 4.47086 14Z" fill="#D0D5DD"/>
<path fill-rule="evenodd" clip-rule="evenodd" d="M15 11.0584C13.3753 11.0584 12.0583 12.3755 12.0583 14.0002C12.0583 15.6249 13.3753 16.9419 15 16.9419C16.6247 16.9419 17.9417 15.6249 17.9417 14.0002C17.9417 12.3755 16.6247 11.0584 15 11.0584ZM12 14.0002C12 12.3433 13.3431 11.0002 15 11.0002C16.6569 11.0002 18 12.3433 18 14.0002C18 15.657 16.6569 17.0002 15 17.0002C13.3431 17.0002 12 15.657 12 14.0002Z" fill="#D0D5DD"/>
<path fill-rule="evenodd" clip-rule="evenodd" d="M15 11.9901C13.8901 11.9901 12.9903 12.8898 12.9903 13.9998C12.9903 15.1097 13.8901 16.0095 15 16.0095C16.1099 16.0095 17.0097 15.1097 17.0097 13.9998C17.0097 12.8898 16.1099 11.9901 15 11.9901ZM12.932 13.9998C12.932 12.8577 13.8579 11.9318 15 11.9318C16.1421 11.9318 17.068 12.8577 17.068 13.9998C17.068 15.1419 16.1421 16.0677 15 16.0677C13.8579 16.0677 12.932 15.1419 12.932 13.9998Z" fill="#D0D5DD"/>
<path d="M14.9709 2H15.0291V26H14.9709V2Z" fill="#D0D5DD"/>
<path d="M27 13.9707L27 14.029L3 14.029L3 13.9707L27 13.9707Z" fill="#D0D5DD"/>
<path d="M22.9515 2H23.0097V26H22.9515V2Z" fill="#D0D5DD"/>
<path d="M10.9806 2H11.0388V26H10.9806V2Z" fill="#D0D5DD"/>
<path d="M18.9612 2H19.0194V26H18.9612V2Z" fill="#D0D5DD"/>
<path d="M6.9903 2H7.04855V26H6.9903V2Z" fill="#D0D5DD"/>
<path d="M27 21.9512L27 22.0094L3 22.0094L3 21.9512L27 21.9512Z" fill="#D0D5DD"/>
<path d="M27 9.98047L27 10.0387L3 10.0387L3 9.98047L27 9.98047Z" fill="#D0D5DD"/>
<path d="M27 17.9609L27 18.0192L3 18.0192L3 17.9609L27 17.9609Z" fill="#D0D5DD"/>
<path d="M27 5.99023L27 6.04849L3 6.04849L3 5.99023L27 5.99023Z" fill="#D0D5DD"/>
<g filter="url(#filter1_dd_1_4204)">
<circle cx="15" cy="14" r="6" fill="#E03131"/>
</g>
<g filter="url(#filter2_b_1_4204)">
<path d="M3 14H27V16.4C27 19.7603 27 21.4405 26.346 22.7239C25.7708 23.8529 24.8529 24.7708 23.7239 25.346C22.4405 26 20.7603 26 17.4 26H12.6C9.23969 26 7.55953 26 6.27606 25.346C5.14708 24.7708 4.2292 23.8529 3.65396 22.7239C3 21.4405 3 19.7603 3 16.4V14Z" fill="white" fill-opacity="0.2"/>
</g>
</g>
<rect x="3.1125" y="2.1125" width="23.775" height="23.775" rx="5.8875" stroke="#D0D5DD" stroke-width="0.225"/>
</g>
<path d="M46.3239 11.7102C46.2784 11.2519 46.0833 10.8958 45.7386 10.642C45.3939 10.3883 44.9261 10.2614 44.3352 10.2614C43.9337 10.2614 43.5947 10.3182 43.3182 10.4318C43.0417 10.5417 42.8295 10.6951 42.6818 10.892C42.5379 11.089 42.4659 11.3125 42.4659 11.5625C42.4583 11.7708 42.5019 11.9527 42.5966 12.108C42.6951 12.2633 42.8295 12.3977 43 12.5114C43.1705 12.6212 43.3674 12.7178 43.5909 12.8011C43.8144 12.8807 44.053 12.9489 44.3068 13.0057L45.3523 13.2557C45.8598 13.3693 46.3258 13.5208 46.75 13.7102C47.1742 13.8996 47.5417 14.1326 47.8523 14.4091C48.1629 14.6856 48.4034 15.0114 48.5739 15.3864C48.7481 15.7614 48.8371 16.1913 48.8409 16.6761C48.8371 17.3883 48.6553 18.0057 48.2955 18.5284C47.9394 19.0473 47.4242 19.4508 46.75 19.7386C46.0795 20.0227 45.2708 20.1648 44.3239 20.1648C43.3845 20.1648 42.5663 20.0208 41.8693 19.733C41.1761 19.4451 40.6345 19.0189 40.2443 18.4545C39.858 17.8864 39.6553 17.1837 39.6364 16.3466H42.017C42.0436 16.7367 42.1553 17.0625 42.3523 17.3239C42.553 17.5814 42.8201 17.7765 43.1534 17.9091C43.4905 18.0379 43.8712 18.1023 44.2955 18.1023C44.7121 18.1023 45.0739 18.0417 45.3807 17.9205C45.6913 17.7992 45.9318 17.6307 46.1023 17.4148C46.2727 17.1989 46.358 16.9508 46.358 16.6705C46.358 16.4091 46.2803 16.1894 46.125 16.0114C45.9735 15.8333 45.75 15.6818 45.4545 15.5568C45.1629 15.4318 44.8049 15.3182 44.3807 15.2159L43.1136 14.8977C42.1326 14.6591 41.358 14.286 40.7898 13.7784C40.2216 13.2708 39.9394 12.5871 39.9432 11.7273C39.9394 11.0227 40.1269 10.4072 40.5057 9.88068C40.8883 9.35417 41.4129 8.94318 42.0795 8.64773C42.7462 8.35227 43.5038 8.20455 44.3523 8.20455C45.2159 8.20455 45.9697 8.35227 46.6136 8.64773C47.2614 8.94318 47.7652 9.35417 48.125 9.88068C48.4848 10.4072 48.6705 11.017 48.6818 11.7102H46.3239ZM56.0469 16.2841V11.2727H58.4673V20H56.1435V18.4148H56.0526C55.8556 18.9261 55.5279 19.3371 55.0696 19.6477C54.6151 19.9583 54.0601 20.1136 53.4048 20.1136C52.8215 20.1136 52.3082 19.9811 51.8651 19.7159C51.4219 19.4508 51.0753 19.0739 50.8253 18.5852C50.5791 18.0966 50.4541 17.5114 50.4503 16.8295V11.2727H52.8707V16.3977C52.8745 16.9129 53.0128 17.3201 53.2855 17.6193C53.5582 17.9186 53.9238 18.0682 54.3821 18.0682C54.6738 18.0682 54.9465 18.0019 55.2003 17.8693C55.4541 17.733 55.6586 17.5322 55.8139 17.267C55.973 17.0019 56.0507 16.6742 56.0469 16.2841ZM60.4489 20V8.36364H62.8693V12.7386H62.9432C63.0492 12.5038 63.2027 12.2652 63.4034 12.0227C63.608 11.7765 63.8731 11.572 64.1989 11.4091C64.5284 11.2424 64.9375 11.1591 65.4261 11.1591C66.0625 11.1591 66.6496 11.3258 67.1875 11.6591C67.7254 11.9886 68.1553 12.4867 68.4773 13.1534C68.7992 13.8163 68.9602 14.6477 68.9602 15.6477C68.9602 16.6212 68.803 17.4432 68.4886 18.1136C68.178 18.7803 67.7538 19.286 67.2159 19.6307C66.6818 19.9716 66.0833 20.142 65.4205 20.142C64.9508 20.142 64.5511 20.0644 64.2216 19.9091C63.8958 19.7538 63.6288 19.5587 63.4205 19.3239C63.2121 19.0852 63.053 18.8447 62.9432 18.6023H62.8352V20H60.4489ZM62.8182 15.6364C62.8182 16.1553 62.8902 16.608 63.0341 16.9943C63.178 17.3807 63.3864 17.6818 63.6591 17.8977C63.9318 18.1098 64.2633 18.2159 64.6534 18.2159C65.0473 18.2159 65.3807 18.108 65.6534 17.892C65.9261 17.6723 66.1326 17.3693 66.2727 16.983C66.4167 16.5928 66.4886 16.1439 66.4886 15.6364C66.4886 15.1326 66.4186 14.6894 66.2784 14.3068C66.1383 13.9242 65.9318 13.625 65.6591 13.4091C65.3864 13.1932 65.0511 13.0852 64.6534 13.0852C64.2595 13.0852 63.9261 13.1894 63.6534 13.3977C63.3845 13.6061 63.178 13.9015 63.0341 14.2841C62.8902 14.6667 62.8182 15.1174 62.8182 15.6364ZM77.8366 13.7614L75.6207 13.8977C75.5829 13.7083 75.5014 13.5379 75.3764 13.3864C75.2514 13.2311 75.0866 13.108 74.8821 13.017C74.6813 12.9223 74.4408 12.875 74.1605 12.875C73.7855 12.875 73.4692 12.9545 73.2116 13.1136C72.9541 13.2689 72.8253 13.4773 72.8253 13.7386C72.8253 13.947 72.9086 14.1231 73.0753 14.267C73.242 14.411 73.5279 14.5265 73.9332 14.6136L75.5128 14.9318C76.3613 15.1061 76.9938 15.3864 77.4105 15.7727C77.8272 16.1591 78.0355 16.6667 78.0355 17.2955C78.0355 17.8674 77.867 18.3693 77.5298 18.8011C77.1965 19.233 76.7382 19.5701 76.1548 19.8125C75.5753 20.0511 74.9067 20.1705 74.1491 20.1705C72.9938 20.1705 72.0734 19.9299 71.3878 19.4489C70.706 18.964 70.3063 18.3049 70.1889 17.4716L72.5696 17.3466C72.6416 17.6989 72.8158 17.9678 73.0923 18.1534C73.3688 18.3352 73.723 18.4261 74.1548 18.4261C74.5791 18.4261 74.92 18.3447 75.1776 18.1818C75.4389 18.0152 75.5715 17.8011 75.5753 17.5398C75.5715 17.3201 75.4787 17.1402 75.2969 17C75.1151 16.8561 74.8348 16.7462 74.456 16.6705L72.9446 16.3693C72.0923 16.1989 71.4579 15.9034 71.0412 15.483C70.6283 15.0625 70.4219 14.5265 70.4219 13.875C70.4219 13.3144 70.5734 12.8314 70.8764 12.4261C71.1832 12.0208 71.6132 11.7083 72.1662 11.4886C72.723 11.2689 73.3745 11.1591 74.1207 11.1591C75.223 11.1591 76.0904 11.392 76.723 11.858C77.3594 12.3239 77.7306 12.9583 77.8366 13.7614ZM83.5028 20.1705C82.6089 20.1705 81.84 19.9811 81.196 19.6023C80.5559 19.2197 80.0634 18.6894 79.7188 18.0114C79.3778 17.3333 79.2074 16.553 79.2074 15.6705C79.2074 14.7765 79.3797 13.9924 79.7244 13.3182C80.0729 12.6402 80.5672 12.1117 81.2074 11.733C81.8475 11.3504 82.6089 11.1591 83.4915 11.1591C84.2528 11.1591 84.9195 11.2973 85.4915 11.5739C86.0634 11.8504 86.5161 12.2386 86.8494 12.7386C87.1828 13.2386 87.3665 13.8258 87.4006 14.5H85.1165C85.0521 14.0644 84.8816 13.714 84.6051 13.4489C84.3324 13.1799 83.9744 13.0455 83.5312 13.0455C83.1562 13.0455 82.8286 13.1477 82.5483 13.3523C82.2718 13.553 82.0559 13.8466 81.9006 14.233C81.7453 14.6193 81.6676 15.0871 81.6676 15.6364C81.6676 16.1932 81.7434 16.6667 81.8949 17.0568C82.0502 17.447 82.268 17.7443 82.5483 17.9489C82.8286 18.1534 83.1562 18.2557 83.5312 18.2557C83.8078 18.2557 84.0559 18.1989 84.2756 18.0852C84.4991 17.9716 84.6828 17.8068 84.8267 17.5909C84.9744 17.3712 85.071 17.108 85.1165 16.8011H87.4006C87.3627 17.4678 87.1809 18.0549 86.8551 18.5625C86.5331 19.0663 86.0881 19.4602 85.5199 19.7443C84.9517 20.0284 84.2794 20.1705 83.5028 20.1705ZM88.9503 20V11.2727H91.2969V12.7955H91.3878C91.5469 12.2538 91.8139 11.8447 92.1889 11.5682C92.5639 11.2879 92.9957 11.1477 93.4844 11.1477C93.6056 11.1477 93.7363 11.1553 93.8764 11.1705C94.0166 11.1856 94.1397 11.2064 94.2457 11.233V13.3807C94.1321 13.3466 93.9749 13.3163 93.7741 13.2898C93.5734 13.2633 93.3897 13.25 93.223 13.25C92.867 13.25 92.5488 13.3277 92.2685 13.483C91.992 13.6345 91.7723 13.8466 91.6094 14.1193C91.4503 14.392 91.3707 14.7064 91.3707 15.0625V20H88.9503ZM95.4972 20V11.2727H97.9176V20H95.4972ZM96.7131 10.1477C96.3532 10.1477 96.0445 10.0284 95.7869 9.78977C95.5331 9.54735 95.4062 9.25758 95.4062 8.92045C95.4062 8.58712 95.5331 8.30114 95.7869 8.0625C96.0445 7.82008 96.3532 7.69886 96.7131 7.69886C97.0729 7.69886 97.3797 7.82008 97.6335 8.0625C97.8911 8.30114 98.0199 8.58712 98.0199 8.92045C98.0199 9.25758 97.8911 9.54735 97.6335 9.78977C97.3797 10.0284 97.0729 10.1477 96.7131 10.1477ZM99.902 20V8.36364H102.322V12.7386H102.396C102.502 12.5038 102.656 12.2652 102.857 12.0227C103.061 11.7765 103.326 11.572 103.652 11.4091C103.982 11.2424 104.391 11.1591 104.879 11.1591C105.516 11.1591 106.103 11.3258 106.641 11.6591C107.179 11.9886 107.608 12.4867 107.93 13.1534C108.252 13.8163 108.413 14.6477 108.413 15.6477C108.413 16.6212 108.256 17.4432 107.942 18.1136C107.631 18.7803 107.207 19.286 106.669 19.6307C106.135 19.9716 105.536 20.142 104.874 20.142C104.404 20.142 104.004 20.0644 103.675 19.9091C103.349 19.7538 103.082 19.5587 102.874 19.3239C102.665 19.0852 102.506 18.8447 102.396 18.6023H102.288V20H99.902ZM102.271 15.6364C102.271 16.1553 102.343 16.608 102.487 16.9943C102.631 17.3807 102.839 17.6818 103.112 17.8977C103.385 18.1098 103.716 18.2159 104.107 18.2159C104.5 18.2159 104.834 18.108 105.107 17.892C105.379 17.6723 105.586 17.3693 105.726 16.983C105.87 16.5928 105.942 16.1439 105.942 15.6364C105.942 15.1326 105.872 14.6894 105.732 14.3068C105.591 13.9242 105.385 13.625 105.112 13.4091C104.839 13.1932 104.504 13.0852 104.107 13.0852C103.713 13.0852 103.379 13.1894 103.107 13.3977C102.838 13.6061 102.631 13.9015 102.487 14.2841C102.343 14.6667 102.271 15.1174 102.271 15.6364ZM114.006 20.1705C113.108 20.1705 112.335 19.9886 111.688 19.625C111.044 19.2576 110.547 18.7386 110.199 18.0682C109.85 17.3939 109.676 16.5966 109.676 15.6761C109.676 14.7784 109.85 13.9905 110.199 13.3125C110.547 12.6345 111.038 12.1061 111.67 11.7273C112.307 11.3485 113.053 11.1591 113.909 11.1591C114.485 11.1591 115.021 11.2519 115.517 11.4375C116.017 11.6193 116.453 11.8939 116.824 12.2614C117.199 12.6288 117.491 13.0909 117.699 13.6477C117.907 14.2008 118.011 14.8485 118.011 15.5909V16.2557H110.642V14.7557H115.733C115.733 14.4072 115.657 14.0985 115.506 13.8295C115.354 13.5606 115.144 13.3504 114.875 13.1989C114.61 13.0436 114.301 12.9659 113.949 12.9659C113.581 12.9659 113.256 13.0511 112.972 13.2216C112.691 13.3883 112.472 13.6136 112.312 13.8977C112.153 14.178 112.072 14.4905 112.068 14.8352V16.2614C112.068 16.6932 112.148 17.0663 112.307 17.3807C112.47 17.6951 112.699 17.9375 112.994 18.108C113.29 18.2784 113.64 18.3636 114.045 18.3636C114.314 18.3636 114.561 18.3258 114.784 18.25C115.008 18.1742 115.199 18.0606 115.358 17.9091C115.517 17.7576 115.638 17.572 115.722 17.3523L117.96 17.5C117.847 18.0379 117.614 18.5076 117.261 18.9091C116.913 19.3068 116.462 19.6174 115.909 19.8409C115.36 20.0606 114.725 20.1705 114.006 20.1705ZM119.636 20V8.36364H122.097V13.1648H127.091V8.36364H129.545V20H127.091V15.1932H122.097V20H119.636ZM137.125 16.2841V11.2727H139.545V20H137.222V18.4148H137.131C136.934 18.9261 136.606 19.3371 136.148 19.6477C135.693 19.9583 135.138 20.1136 134.483 20.1136C133.9 20.1136 133.386 19.9811 132.943 19.7159C132.5 19.4508 132.153 19.0739 131.903 18.5852C131.657 18.0966 131.532 17.5114 131.528 16.8295V11.2727H133.949V16.3977C133.953 16.9129 134.091 17.3201 134.364 17.6193C134.636 17.9186 135.002 18.0682 135.46 18.0682C135.752 18.0682 136.025 18.0019 136.278 17.8693C136.532 17.733 136.737 17.5322 136.892 17.267C137.051 17.0019 137.129 16.6742 137.125 16.2841ZM141.527 20V8.36364H143.947V12.7386H144.021C144.127 12.5038 144.281 12.2652 144.482 12.0227C144.686 11.7765 144.951 11.572 145.277 11.4091C145.607 11.2424 146.016 11.1591 146.504 11.1591C147.141 11.1591 147.728 11.3258 148.266 11.6591C148.804 11.9886 149.233 12.4867 149.555 13.1534C149.877 13.8163 150.038 14.6477 150.038 15.6477C150.038 16.6212 149.881 17.4432 149.567 18.1136C149.256 18.7803 148.832 19.286 148.294 19.6307C147.76 19.9716 147.161 20.142 146.499 20.142C146.029 20.142 145.629 20.0644 145.3 19.9091C144.974 19.7538 144.707 19.5587 144.499 19.3239C144.29 19.0852 144.131 18.8447 144.021 18.6023H143.913V20H141.527ZM143.896 15.6364C143.896 16.1553 143.968 16.608 144.112 16.9943C144.256 17.3807 144.464 17.6818 144.737 17.8977C145.01 18.1098 145.341 18.2159 145.732 18.2159C146.125 18.2159 146.459 18.108 146.732 17.892C147.004 17.6723 147.211 17.3693 147.351 16.983C147.495 16.5928 147.567 16.1439 147.567 15.6364C147.567 15.1326 147.497 14.6894 147.357 14.3068C147.216 13.9242 147.01 13.625 146.737 13.4091C146.464 13.1932 146.129 13.0852 145.732 13.0852C145.338 13.0852 145.004 13.1894 144.732 13.3977C144.463 13.6061 144.256 13.9015 144.112 14.2841C143.968 14.6667 143.896 15.1174 143.896 15.6364Z" fill="#111111"/>
<defs>
<filter id="filter0_dd_1_4204" x="0.75" y="0.5" width="28.5" height="28.5" filterUnits="userSpaceOnUse" color-interpolation-filters="sRGB">
<feFlood flood-opacity="0" result="BackgroundImageFix"/>
<feColorMatrix in="SourceAlpha" type="matrix" values="0 0 0 0 0 0 0 0 0 0 0 0 0 0 0 0 0 0 127 0" result="hardAlpha"/>
<feOffset dy="0.75"/>
<feGaussianBlur stdDeviation="0.75"/>
<feColorMatrix type="matrix" values="0 0 0 0 0.0627451 0 0 0 0 0.0941176 0 0 0 0 0.156863 0 0 0 0.06 0"/>
<feBlend mode="normal" in2="BackgroundImageFix" result="effect1_dropShadow_1_4204"/>
<feColorMatrix in="SourceAlpha" type="matrix" values="0 0 0 0 0 0 0 0 0 0 0 0 0 0 0 0 0 0 127 0" result="hardAlpha"/>
<feOffset dy="0.75"/>
<feGaussianBlur stdDeviation="1.125"/>
<feColorMatrix type="matrix" values="0 0 0 0 0.0627451 0 0 0 0 0.0941176 0 0 0 0 0.156863 0 0 0 0.1 0"/>
<feBlend mode="normal" in2="effect1_dropShadow_1_4204" result="effect2_dropShadow_1_4204"/>
<feBlend mode="normal" in="SourceGraphic" in2="effect2_dropShadow_1_4204" result="shape"/>
</filter>
<filter id="filter1_dd_1_4204" x="6.75" y="6.5" width="16.5" height="16.5" filterUnits="userSpaceOnUse" color-interpolation-filters="sRGB">
<feFlood flood-opacity="0" result="BackgroundImageFix"/>
<feColorMatrix in="SourceAlpha" type="matrix" values="0 0 0 0 0 0 0 0 0 0 0 0 0 0 0 0 0 0 127 0" result="hardAlpha"/>
<feOffset dy="0.75"/>
<feGaussianBlur stdDeviation="0.75"/>
<feColorMatrix type="matrix" values="0 0 0 0 0.0627451 0 0 0 0 0.0941176 0 0 0 0 0.156863 0 0 0 0.06 0"/>
<feBlend mode="normal" in2="BackgroundImageFix" result="effect1_dropShadow_1_4204"/>
<feColorMatrix in="SourceAlpha" type="matrix" values="0 0 0 0 0 0 0 0 0 0 0 0 0 0 0 0 0 0 127 0" result="hardAlpha"/>
<feOffset dy="0.75"/>
<feGaussianBlur stdDeviation="1.125"/>
<feColorMatrix type="matrix" values="0 0 0 0 0.0627451 0 0 0 0 0.0941176 0 0 0 0 0.156863 0 0 0 0.1 0"/>
<feBlend mode="normal" in2="effect1_dropShadow_1_4204" result="effect2_dropShadow_1_4204"/>
<feBlend mode="normal" in="SourceGraphic" in2="effect2_dropShadow_1_4204" result="shape"/>
</filter>
<filter id="filter2_b_1_4204" x="-0.75" y="10.25" width="31.5" height="19.5" filterUnits="userSpaceOnUse" color-interpolation-filters="sRGB">
<feFlood flood-opacity="0" result="BackgroundImageFix"/>
<feGaussianBlur in="BackgroundImageFix" stdDeviation="1.875"/>
<feComposite in2="SourceAlpha" operator="in" result="effect1_backgroundBlur_1_4204"/>
<feBlend mode="normal" in="SourceGraphic" in2="effect1_backgroundBlur_1_4204" result="shape"/>
</filter>
<linearGradient id="paint0_linear_1_4204" x1="15" y1="2" x2="15" y2="26" gradientUnits="userSpaceOnUse">
<stop stop-color="white"/>
<stop offset="1" stop-color="#D0D5DD"/>
</linearGradient>
<clipPath id="clip0_1_4204">
<rect x="3" y="2" width="24" height="24" rx="6" fill="white"/>
</clipPath>
</defs>
</svg>
