<svg width="169" height="41" viewBox="0 0 169 41" fill="none" xmlns="http://www.w3.org/2000/svg">
<g filter="url(#filter0_dd_69_750)">
<rect x="-0.159558" y="0.159558" width="33.7199" height="33.7199" rx="8.3502" transform="matrix(-1 -8.74228e-08 -8.74228e-08 1 37.4719 2.22827)" fill="white"/>
<rect x="-0.159558" y="0.159558" width="33.7199" height="33.7199" rx="8.3502" transform="matrix(-1 -8.74228e-08 -8.74228e-08 1 37.4719 2.22827)" fill="url(#paint0_linear_69_750)"/>
<rect x="-0.159558" y="0.159558" width="33.7199" height="33.7199" rx="8.3502" transform="matrix(-1 -8.74228e-08 -8.74228e-08 1 37.4719 2.22827)" stroke="#D0D5DD" stroke-width="0.319116"/>
</g>
<path fill-rule="evenodd" clip-rule="evenodd" d="M18.4494 23.9985C15.8775 25.3775 13.8358 26.1707 13.4666 25.1689V21.9564C12.9682 22.2775 12.3747 22.4638 11.7376 22.4638C9.97222 22.4638 8.54102 21.0327 8.54102 19.2672C8.54102 17.5018 9.97222 16.0706 11.7376 16.0706C12.3747 16.0706 12.9682 16.2569 13.4666 16.5781V12.5378C13.4666 9.55899 16.6913 7.69723 19.271 9.18661L20.2187 9.73379L20.1934 9.73549C20.1651 9.72641 20.1365 9.71751 20.1078 9.70872C18.9724 9.36181 18.6194 11.5719 18.5248 14.5839L18.5139 14.5776V14.9789C18.4834 16.2616 18.4938 17.6703 18.5072 19.0781C18.5097 19.34 18.5119 19.6101 18.5139 19.8867V23.9026L18.5279 23.8945L18.5279 23.9657L18.4494 24.011V23.9985Z" fill="url(#paint1_linear_69_750)"/>
<path fill-rule="evenodd" clip-rule="evenodd" d="M13.5059 11.7439L13.5425 11.7653C13.7637 10.6487 14.4557 9.74765 15.3624 9.20991C14.4462 9.73655 13.7413 10.6309 13.5059 11.7439ZM22.9521 11.3654L20.0588 9.69496C18.9629 9.42733 18.6189 11.6164 18.5257 14.5839L18.5148 14.5776V14.6316L21.9444 16.6116C22.1855 16.7486 22.4209 16.882 22.6496 17.0112C23.8757 17.7036 25.1012 18.399 26.1971 19.0669L26.5439 19.2672L26.5329 19.2735C29.0944 20.8614 30.8318 22.2722 29.9638 23.082C29.9418 23.1025 29.9198 23.1227 29.8978 23.1427L29.8865 23.1655L30.8343 22.6184C33.4138 21.129 33.4138 17.4055 30.8343 15.9161L27.3598 13.9102C27.9824 13.6495 28.5281 13.1903 28.8919 12.5605C29.7744 11.0316 29.2507 9.07655 27.7218 8.19384C26.1929 7.31113 24.2378 7.83498 23.3549 9.3639C22.9914 9.99366 22.8666 10.6957 22.9521 11.3654Z" fill="url(#paint2_linear_69_750)"/>
<path fill-rule="evenodd" clip-rule="evenodd" d="M27.4293 24.6547L30.8155 22.6997C31.8331 22.1122 32.4494 21.1771 32.6642 20.1686C32.4341 21.1459 31.8239 22.0468 30.8336 22.6185L29.8861 23.1656L29.8971 23.1429C29.9191 23.1229 29.9411 23.1026 29.9631 23.0821C30.8261 22.2771 29.1142 20.8783 26.5783 19.3019L26.5113 19.3405L26.5251 19.3486L23.0471 21.3567C22.8085 21.4967 22.5759 21.6336 22.3504 21.7666C21.1381 22.4821 19.9233 23.1955 18.7972 23.8104L18.4496 24.0111V23.9985C15.7939 25.4226 13.7033 26.222 13.4361 25.0652C13.4293 25.0359 13.4228 25.0066 13.4164 24.9775L13.4023 24.9565V26.0509C13.4023 29.0297 16.627 30.8915 19.2067 29.4021L22.9425 27.2451C22.8755 27.8917 23.0046 28.5647 23.3545 29.1707C24.2371 30.6996 26.1922 31.2235 27.7211 30.3407C29.25 29.458 29.7737 27.503 28.8912 25.9741C28.5412 25.3681 28.0229 24.92 27.4293 24.6547Z" fill="url(#paint3_linear_69_750)"/>
<path d="M57.5933 17.182C57.5449 16.6945 57.3374 16.3157 56.9708 16.0458C56.6041 15.7758 56.1065 15.6408 55.4779 15.6408C55.0508 15.6408 54.6902 15.7013 54.3961 15.8221C54.1019 15.939 53.8763 16.1022 53.7192 16.3117C53.566 16.5212 53.4895 16.7589 53.4895 17.0249C53.4814 17.2465 53.5278 17.4399 53.6285 17.6051C53.7333 17.7703 53.8763 17.9133 54.0576 18.0342C54.2389 18.151 54.4485 18.2538 54.6862 18.3424C54.9239 18.427 55.1777 18.4996 55.4477 18.56L56.5598 18.8259C57.0997 18.9468 57.5953 19.108 58.0466 19.3094C58.4978 19.5109 58.8887 19.7587 59.2191 20.0528C59.5495 20.347 59.8053 20.6935 59.9866 21.0924C60.172 21.4913 60.2667 21.9486 60.2707 22.4643C60.2667 23.2218 60.0733 23.8786 59.6905 24.4346C59.3117 24.9866 58.7638 25.4158 58.0466 25.722C57.3334 26.0242 56.4731 26.1753 55.4658 26.1753C54.4666 26.1753 53.5963 26.0222 52.8549 25.7159C52.1175 25.4097 51.5414 24.9564 51.1263 24.3561C50.7154 23.7517 50.4998 23.0043 50.4796 22.1138H53.012C53.0402 22.5288 53.1591 22.8753 53.3686 23.1533C53.5822 23.4273 53.8662 23.6348 54.2208 23.7759C54.5794 23.9129 54.9843 23.9813 55.4356 23.9813C55.8788 23.9813 56.2636 23.9169 56.59 23.7879C56.9204 23.659 57.1762 23.4797 57.3576 23.25C57.5389 23.0204 57.6295 22.7565 57.6295 22.4583C57.6295 22.1803 57.5469 21.9466 57.3817 21.7572C57.2206 21.5678 56.9828 21.4067 56.6686 21.2737C56.3583 21.1407 55.9775 21.0199 55.5263 20.9111L54.1785 20.5726C53.1349 20.3188 52.3109 19.9219 51.7066 19.382C51.1022 18.842 50.802 18.1148 50.806 17.2001C50.802 16.4507 51.0014 15.7959 51.4044 15.2359C51.8113 14.6758 52.3694 14.2386 53.0785 13.9244C53.7877 13.6101 54.5935 13.4529 55.4961 13.4529C56.4147 13.4529 57.2165 13.6101 57.9015 13.9244C58.5905 14.2386 59.1264 14.6758 59.5092 15.2359C59.892 15.7959 60.0894 16.4446 60.1015 17.182H57.5933ZM67.9358 22.0473V16.7166H70.5105V26H68.0386V24.3138H67.9419C67.7324 24.8577 67.3838 25.2949 66.8963 25.6253C66.4128 25.9557 65.8225 26.1209 65.1254 26.1209C64.5049 26.1209 63.959 25.9799 63.4876 25.6978C63.0161 25.4158 62.6475 25.0149 62.3815 24.4951C62.1196 23.9753 61.9867 23.3528 61.9826 22.6275V16.7166H64.5573V22.1682C64.5613 22.7162 64.7084 23.1493 64.9985 23.4676C65.2886 23.7859 65.6774 23.9451 66.165 23.9451C66.4752 23.9451 66.7653 23.8746 67.0353 23.7336C67.3053 23.5885 67.5228 23.3749 67.688 23.0929C67.8573 22.8109 67.9399 22.4623 67.9358 22.0473ZM72.6183 26V13.6222H75.193V18.2759H75.2716C75.3844 18.0261 75.5476 17.7723 75.7611 17.5144C75.9787 17.2525 76.2608 17.0349 76.6073 16.8617C76.9578 16.6844 77.393 16.5957 77.9128 16.5957C78.5897 16.5957 79.2142 16.773 79.7863 17.1276C80.3585 17.4782 80.8158 18.008 81.1583 18.7171C81.5008 19.4223 81.672 20.3067 81.672 21.3704C81.672 22.4059 81.5048 23.2803 81.1704 23.9934C80.84 24.7026 80.3887 25.2405 79.8166 25.6071C79.2484 25.9698 78.6118 26.1511 77.9067 26.1511C77.4071 26.1511 76.982 26.0685 76.6315 25.9033C76.2849 25.7381 76.0009 25.5306 75.7793 25.2808C75.5577 25.0269 75.3884 24.7711 75.2716 24.5132H75.1567V26H72.6183ZM75.1386 21.3583C75.1386 21.9103 75.2152 22.3918 75.3683 22.8028C75.5214 23.2138 75.743 23.5341 76.0331 23.7638C76.3232 23.9894 76.6758 24.1022 77.0908 24.1022C77.5098 24.1022 77.8644 23.9874 78.1545 23.7577C78.4446 23.524 78.6642 23.2017 78.8133 22.7907C78.9664 22.3757 79.043 21.8982 79.043 21.3583C79.043 20.8224 78.9684 20.351 78.8193 19.944C78.6702 19.5371 78.4507 19.2188 78.1605 18.9891C77.8704 18.7594 77.5139 18.6446 77.0908 18.6446C76.6717 18.6446 76.3172 18.7554 76.0271 18.977C75.741 19.1986 75.5214 19.5129 75.3683 19.9199C75.2152 20.3268 75.1386 20.8063 75.1386 21.3583ZM91.1141 19.3638L88.757 19.5089C88.7167 19.3074 88.63 19.1261 88.4971 18.9649C88.3641 18.7997 88.1888 18.6688 87.9713 18.5721C87.7577 18.4714 87.5018 18.421 87.2037 18.421C86.8048 18.421 86.4683 18.5056 86.1944 18.6748C85.9204 18.84 85.7834 19.0616 85.7834 19.3397C85.7834 19.5613 85.872 19.7486 86.0493 19.9017C86.2266 20.0549 86.5308 20.1777 86.9619 20.2704L88.6421 20.6089C89.5447 20.7942 90.2176 21.0924 90.6608 21.5034C91.104 21.9143 91.3256 22.4543 91.3256 23.1231C91.3256 23.7315 91.1463 24.2654 90.7877 24.7247C90.4331 25.1841 89.9456 25.5427 89.3251 25.8006C88.7086 26.0544 87.9974 26.1813 87.1916 26.1813C85.9627 26.1813 84.9836 25.9255 84.2543 25.4137C83.529 24.898 83.1039 24.1969 82.979 23.3105L85.5114 23.1775C85.588 23.5522 85.7733 23.8383 86.0674 24.0357C86.3616 24.2291 86.7383 24.3258 87.1976 24.3258C87.6489 24.3258 88.0115 24.2392 88.2855 24.066C88.5636 23.8887 88.7046 23.661 88.7086 23.383C88.7046 23.1493 88.6059 22.9579 88.4125 22.8088C88.2191 22.6557 87.9209 22.5389 87.518 22.4583L85.9103 22.138C85.0037 21.9567 84.3288 21.6424 83.8856 21.1951C83.4464 20.7479 83.2268 20.1777 83.2268 19.4847C83.2268 18.8884 83.388 18.3747 83.7103 17.9435C84.0367 17.5124 84.494 17.18 85.0823 16.9463C85.6746 16.7126 86.3676 16.5957 87.1614 16.5957C88.3339 16.5957 89.2566 16.8435 89.9295 17.3391C90.6064 17.8347 91.0012 18.5096 91.1141 19.3638ZM97.1413 26.1813C96.1904 26.1813 95.3725 25.9799 94.6875 25.5769C94.0066 25.17 93.4828 24.6059 93.1161 23.8846C92.7535 23.1634 92.5721 22.3334 92.5721 21.3946C92.5721 20.4437 92.7555 19.6096 93.1221 18.8924C93.4928 18.1712 94.0186 17.6091 94.6996 17.2062C95.3805 16.7992 96.1904 16.5957 97.1292 16.5957C97.9391 16.5957 98.6482 16.7428 99.2567 17.0369C99.8651 17.3311 100.347 17.7441 100.701 18.2759C101.056 18.8078 101.251 19.4323 101.287 20.1495H98.8578C98.7893 19.6862 98.608 19.3135 98.3138 19.0314C98.0237 18.7453 97.6429 18.6023 97.1715 18.6023C96.7726 18.6023 96.4241 18.7111 96.1259 18.9287C95.8318 19.1422 95.6021 19.4545 95.4369 19.8655C95.2717 20.2765 95.1891 20.7741 95.1891 21.3583C95.1891 21.9506 95.2697 22.4543 95.4309 22.8693C95.5961 23.2843 95.8278 23.6006 96.1259 23.8182C96.4241 24.0357 96.7726 24.1445 97.1715 24.1445C97.4657 24.1445 97.7296 24.0841 97.9633 23.9632C98.201 23.8423 98.3964 23.6671 98.5495 23.4374C98.7067 23.2037 98.8094 22.9237 98.8578 22.5973H101.287C101.247 23.3065 101.054 23.931 100.707 24.4709C100.365 25.0068 99.8913 25.4258 99.2869 25.728C98.6825 26.0302 97.9673 26.1813 97.1413 26.1813ZM102.936 26V16.7166H105.432V18.3364H105.529C105.698 17.7602 105.982 17.325 106.381 17.0309C106.78 16.7327 107.239 16.5837 107.759 16.5837C107.888 16.5837 108.027 16.5917 108.176 16.6078C108.325 16.624 108.456 16.6461 108.569 16.6743V18.9589C108.448 18.9226 108.281 18.8904 108.067 18.8622C107.854 18.834 107.658 18.8199 107.481 18.8199C107.102 18.8199 106.764 18.9025 106.465 19.0677C106.171 19.2289 105.938 19.4545 105.764 19.7446C105.595 20.0347 105.511 20.3691 105.511 20.7479V26H102.936ZM109.9 26V16.7166H112.475V26H109.9ZM111.193 15.5199C110.811 15.5199 110.482 15.393 110.208 15.1392C109.938 14.8813 109.803 14.5731 109.803 14.2145C109.803 13.8599 109.938 13.5557 110.208 13.3018C110.482 13.044 110.811 12.915 111.193 12.915C111.576 12.915 111.902 13.044 112.172 13.3018C112.446 13.5557 112.583 13.8599 112.583 14.2145C112.583 14.5731 112.446 14.8813 112.172 15.1392C111.902 15.393 111.576 15.5199 111.193 15.5199ZM114.585 26V13.6222H117.16V18.2759H117.239C117.351 18.0261 117.515 17.7723 117.728 17.5144C117.946 17.2525 118.228 17.0349 118.574 16.8617C118.925 16.6844 119.36 16.5957 119.88 16.5957C120.557 16.5957 121.181 16.773 121.753 17.1276C122.326 17.4782 122.783 18.008 123.125 18.7171C123.468 19.4223 123.639 20.3067 123.639 21.3704C123.639 22.4059 123.472 23.2803 123.137 23.9934C122.807 24.7026 122.356 25.2405 121.784 25.6071C121.216 25.9698 120.579 26.1511 119.874 26.1511C119.374 26.1511 118.949 26.0685 118.599 25.9033C118.252 25.7381 117.968 25.5306 117.746 25.2808C117.525 25.0269 117.356 24.7711 117.239 24.5132H117.124V26H114.585ZM117.106 21.3583C117.106 21.9103 117.182 22.3918 117.335 22.8028C117.488 23.2138 117.71 23.5341 118 23.7638C118.29 23.9894 118.643 24.1022 119.058 24.1022C119.477 24.1022 119.831 23.9874 120.122 23.7577C120.412 23.524 120.631 23.2017 120.78 22.7907C120.933 22.3757 121.01 21.8982 121.01 21.3583C121.01 20.8224 120.936 20.351 120.786 19.944C120.637 19.5371 120.418 19.2188 120.128 18.9891C119.838 18.7594 119.481 18.6446 119.058 18.6446C118.639 18.6446 118.284 18.7554 117.994 18.977C117.708 19.1986 117.488 19.5129 117.335 19.9199C117.182 20.3268 117.106 20.8063 117.106 21.3583ZM129.588 26.1813C128.633 26.1813 127.811 25.9879 127.122 25.6011C126.437 25.2103 125.909 24.6583 125.538 23.9451C125.168 23.2279 124.982 22.3797 124.982 21.4006C124.982 20.4457 125.168 19.6076 125.538 18.8864C125.909 18.1651 126.431 17.6031 127.104 17.2001C127.781 16.7972 128.574 16.5957 129.485 16.5957C130.097 16.5957 130.668 16.6945 131.195 16.8919C131.727 17.0853 132.191 17.3774 132.586 17.7683C132.984 18.1591 133.295 18.6507 133.516 19.243C133.738 19.8312 133.849 20.5202 133.849 21.31V22.0171H126.01V20.4215H131.425C131.425 20.0508 131.345 19.7224 131.183 19.4364C131.022 19.1503 130.799 18.9267 130.513 18.7655C130.23 18.6003 129.902 18.5177 129.527 18.5177C129.137 18.5177 128.79 18.6084 128.488 18.7897C128.19 18.967 127.956 19.2067 127.787 19.5089C127.617 19.8071 127.531 20.1395 127.527 20.5061V22.0231C127.527 22.4825 127.611 22.8794 127.781 23.2138C127.954 23.5482 128.198 23.8061 128.512 23.9874C128.826 24.1687 129.199 24.2594 129.63 24.2594C129.916 24.2594 130.178 24.2191 130.416 24.1385C130.654 24.0579 130.857 23.937 131.026 23.7759C131.195 23.6147 131.324 23.4173 131.413 23.1836L133.794 23.3407C133.673 23.9129 133.426 24.4125 133.051 24.8396C132.68 25.2626 132.201 25.593 131.612 25.8308C131.028 26.0645 130.353 26.1813 129.588 26.1813ZM135.577 26V13.6222H138.194V18.7292H143.507V13.6222H146.118V26H143.507V20.8869H138.194V26H135.577ZM154.18 22.0473V16.7166H156.755V26H154.283V24.3138H154.186C153.977 24.8577 153.628 25.2949 153.141 25.6253C152.657 25.9557 152.067 26.1209 151.37 26.1209C150.749 26.1209 150.203 25.9799 149.732 25.6978C149.261 25.4158 148.892 25.0149 148.626 24.4951C148.364 23.9753 148.231 23.3528 148.227 22.6275V16.7166H150.802V22.1682C150.806 22.7162 150.953 23.1493 151.243 23.4676C151.533 23.7859 151.922 23.9451 152.409 23.9451C152.72 23.9451 153.01 23.8746 153.28 23.7336C153.55 23.5885 153.767 23.3749 153.932 23.0929C154.102 22.8109 154.184 22.4623 154.18 22.0473ZM158.863 26V13.6222H161.437V18.2759H161.516C161.629 18.0261 161.792 17.7723 162.006 17.5144C162.223 17.2525 162.505 17.0349 162.852 16.8617C163.202 16.6844 163.637 16.5957 164.157 16.5957C164.834 16.5957 165.459 16.773 166.031 17.1276C166.603 17.4782 167.06 18.008 167.403 18.7171C167.745 19.4223 167.916 20.3067 167.916 21.3704C167.916 22.4059 167.749 23.2803 167.415 23.9934C167.084 24.7026 166.633 25.2405 166.061 25.6071C165.493 25.9698 164.856 26.1511 164.151 26.1511C163.652 26.1511 163.226 26.0685 162.876 25.9033C162.529 25.7381 162.245 25.5306 162.024 25.2808C161.802 25.0269 161.633 24.7711 161.516 24.5132H161.401V26H158.863ZM161.383 21.3583C161.383 21.9103 161.46 22.3918 161.613 22.8028C161.766 23.2138 161.987 23.5341 162.278 23.7638C162.568 23.9894 162.92 24.1022 163.335 24.1022C163.754 24.1022 164.109 23.9874 164.399 23.7577C164.689 23.524 164.909 23.2017 165.058 22.7907C165.211 22.3757 165.287 21.8982 165.287 21.3583C165.287 20.8224 165.213 20.351 165.064 19.944C164.915 19.5371 164.695 19.2188 164.405 18.9891C164.115 18.7594 163.758 18.6446 163.335 18.6446C162.916 18.6446 162.562 18.7554 162.272 18.977C161.985 19.1986 161.766 19.5129 161.613 19.9199C161.46 20.3268 161.383 20.8063 161.383 21.3583Z" fill="#111111"/>
<defs>
<filter id="filter0_dd_69_750" x="0.560792" y="0.100831" width="40.4214" height="40.4214" filterUnits="userSpaceOnUse" color-interpolation-filters="sRGB">
<feFlood flood-opacity="0" result="BackgroundImageFix"/>
<feColorMatrix in="SourceAlpha" type="matrix" values="0 0 0 0 0 0 0 0 0 0 0 0 0 0 0 0 0 0 127 0" result="hardAlpha"/>
<feOffset dy="1.06372"/>
<feGaussianBlur stdDeviation="1.06372"/>
<feColorMatrix type="matrix" values="0 0 0 0 0.0627451 0 0 0 0 0.0941176 0 0 0 0 0.156863 0 0 0 0.06 0"/>
<feBlend mode="normal" in2="BackgroundImageFix" result="effect1_dropShadow_69_750"/>
<feColorMatrix in="SourceAlpha" type="matrix" values="0 0 0 0 0 0 0 0 0 0 0 0 0 0 0 0 0 0 127 0" result="hardAlpha"/>
<feOffset dy="1.06372"/>
<feGaussianBlur stdDeviation="1.59558"/>
<feColorMatrix type="matrix" values="0 0 0 0 0.0627451 0 0 0 0 0.0941176 0 0 0 0 0.156863 0 0 0 0.1 0"/>
<feBlend mode="normal" in2="effect1_dropShadow_69_750" result="effect2_dropShadow_69_750"/>
<feBlend mode="normal" in="SourceGraphic" in2="effect2_dropShadow_69_750" result="shape"/>
</filter>
<linearGradient id="paint0_linear_69_750" x1="17.0195" y1="0" x2="17.0195" y2="34.039" gradientUnits="userSpaceOnUse">
<stop stop-color="white"/>
<stop offset="1" stop-color="#D0D5DD"/>
</linearGradient>
<linearGradient id="paint1_linear_69_750" x1="16.8427" y1="25.6191" x2="16.8427" y2="8.66241" gradientUnits="userSpaceOnUse">
<stop stop-color="#7E0000"/>
<stop offset="1" stop-color="#E40000"/>
</linearGradient>
<linearGradient id="paint2_linear_69_750" x1="30.8491" y1="21.2017" x2="17.3732" y2="7.72467" gradientUnits="userSpaceOnUse">
<stop stop-color="#B40101"/>
<stop offset="1" stop-color="#5E0101"/>
</linearGradient>
<linearGradient id="paint3_linear_69_750" x1="17.721" y1="29.9262" x2="28.3455" y2="19.3019" gradientUnits="userSpaceOnUse">
<stop stop-color="#B40000"/>
<stop offset="1" stop-color="#4E0000"/>
</linearGradient>
</defs>
</svg>
