<svg width="232" height="54" viewBox="0 0 232 54" fill="none" xmlns="http://www.w3.org/2000/svg">
<g filter="url(#filter0_dd_50_927)">
<rect x="-0.219653" y="0.219653" width="46.4201" height="46.4201" rx="11.4952" transform="matrix(-1 -8.74228e-08 -8.74228e-08 1 49.6613 2.40392)" fill="white"/>
<rect x="-0.219653" y="0.219653" width="46.4201" height="46.4201" rx="11.4952" transform="matrix(-1 -8.74228e-08 -8.74228e-08 1 49.6613 2.40392)" fill="url(#paint0_linear_50_927)"/>
<rect x="-0.219653" y="0.219653" width="46.4201" height="46.4201" rx="11.4952" transform="matrix(-1 -8.74228e-08 -8.74228e-08 1 49.6613 2.40392)" stroke="#D0D5DD" stroke-width="0.439307"/>
</g>
<path fill-rule="evenodd" clip-rule="evenodd" d="M24.7741 31.0747C21.2335 32.9732 18.4228 34.0651 17.9145 32.686V28.2635C17.2284 28.7055 16.4113 28.962 15.5344 28.962C13.104 28.962 11.1338 26.9919 11.1338 24.5615C11.1338 22.1311 13.104 20.1609 15.5344 20.1609C16.4113 20.1609 17.2284 20.4174 17.9145 20.8595V15.2975C17.9145 11.1968 22.3537 8.63381 25.9051 10.6842L27.2098 11.4374L27.1749 11.4398C27.1359 11.4273 27.0966 11.415 27.057 11.4029C25.4939 10.9253 25.008 13.9678 24.8778 18.1142L24.8628 18.1056V18.6581C24.8208 20.4238 24.8351 22.3631 24.8536 24.3012C24.857 24.6617 24.8601 25.0335 24.8628 25.4143V30.9427L24.882 30.9316L24.8821 31.0296L24.7741 31.0919V31.0747Z" fill="url(#paint1_linear_50_927)"/>
<path fill-rule="evenodd" clip-rule="evenodd" d="M17.9663 14.2047L18.0167 14.234C18.3213 12.697 19.2739 11.4565 20.5221 10.7162C19.2607 11.4412 18.2905 12.6724 17.9663 14.2047ZM30.9703 13.6835L26.9874 11.384C25.4786 11.0155 25.0051 14.0291 24.8768 18.1142L24.8619 18.1055V18.1799L29.5831 20.9056C29.915 21.0942 30.2391 21.2779 30.554 21.4557C32.2419 22.4089 33.9288 23.3663 35.4376 24.2857L35.915 24.5615L35.8998 24.5701C39.426 26.7561 41.8178 28.6982 40.6229 29.8131C40.5926 29.8412 40.5623 29.8691 40.5321 29.8966L40.5165 29.928L41.8212 29.1748C45.3723 27.1245 45.3723 21.9985 41.8212 19.9481L37.0381 17.1868C37.8953 16.8279 38.6465 16.1957 39.1473 15.3287C40.3622 13.224 39.6413 10.5326 37.5365 9.31746C35.4317 8.10229 32.7402 8.82344 31.5248 10.9282C31.0245 11.7952 30.8527 12.7617 30.9703 13.6835Z" fill="url(#paint2_linear_50_927)"/>
<path fill-rule="evenodd" clip-rule="evenodd" d="M37.1342 31.978L41.7958 29.2867C43.1967 28.4779 44.045 27.1906 44.3408 25.8022C44.024 27.1477 43.184 28.3879 41.8207 29.1749L40.5164 29.9281L40.5315 29.8967C40.5618 29.8692 40.5921 29.8413 40.6223 29.8131C41.8104 28.7049 39.4538 26.7792 35.9628 24.6091L35.8705 24.6623L35.8895 24.6734L31.1016 27.4378C30.7731 27.6306 30.4529 27.819 30.1424 28.0022C28.4735 28.9871 26.8012 29.9692 25.251 30.8157L24.7725 31.092V31.0747C21.1165 33.0351 18.2386 34.1355 17.8707 32.5431C17.8613 32.5027 17.8523 32.4624 17.8436 32.4223L17.8242 32.3934V33.9C17.8242 38.0008 22.2634 40.5637 25.8147 38.5134L30.9576 35.544C30.8653 36.4341 31.043 37.3606 31.5248 38.1949C32.7397 40.2996 35.4312 41.0208 37.536 39.8056C39.6407 38.5904 40.3617 35.899 39.1467 33.7943C38.665 32.96 37.9513 32.3431 37.1342 31.978Z" fill="url(#paint3_linear_50_927)"/>
<path d="M78.6603 21.4311C78.5937 20.76 78.3081 20.2386 77.8033 19.8669C77.2985 19.4953 76.6135 19.3095 75.7482 19.3095C75.1603 19.3095 74.6638 19.3927 74.2589 19.5591C73.854 19.72 73.5434 19.9446 73.327 20.233C73.1163 20.5215 73.0109 20.8487 73.0109 21.2148C72.9998 21.5199 73.0636 21.7861 73.2022 22.0136C73.3465 22.241 73.5434 22.4379 73.793 22.6043C74.0426 22.7651 74.331 22.9066 74.6583 23.0286C74.9855 23.1451 75.335 23.2449 75.7066 23.3281L77.2375 23.6942C77.9808 23.8606 78.6631 24.0825 79.2843 24.3598C79.9055 24.6372 80.4436 24.9783 80.8984 25.3832C81.3533 25.7882 81.7055 26.2652 81.9551 26.8143C82.2102 27.3634 82.3406 27.993 82.3461 28.703C82.3406 29.7458 82.0743 30.6499 81.5474 31.4154C81.026 32.1753 80.2716 32.766 79.2843 33.1876C78.3025 33.6036 77.1183 33.8116 75.7316 33.8116C74.356 33.8116 73.1579 33.6008 72.1372 33.1793C71.1222 32.7577 70.329 32.1337 69.7577 31.3072C69.1919 30.4752 68.8951 29.4463 68.8674 28.2204H72.3536C72.3924 28.7917 72.556 29.2688 72.8445 29.6515C73.1384 30.0287 73.5295 30.3143 74.0176 30.5085C74.5113 30.6971 75.0687 30.7914 75.69 30.7914C76.3001 30.7914 76.8298 30.7026 77.2791 30.5251C77.734 30.3476 78.0862 30.1008 78.3358 29.7846C78.5854 29.4685 78.7102 29.1051 78.7102 28.6947C78.7102 28.3119 78.5965 27.9902 78.3691 27.7295C78.1472 27.4688 77.8199 27.247 77.3873 27.0639C76.9602 26.8809 76.436 26.7145 75.8148 26.5647L73.9594 26.0988C72.5228 25.7493 71.3884 25.203 70.5564 24.4597C69.7244 23.7164 69.3112 22.7152 69.3167 21.4561C69.3112 20.4244 69.5857 19.523 70.1404 18.752C70.7006 17.981 71.4689 17.3792 72.4451 16.9466C73.4213 16.5139 74.5307 16.2976 75.7732 16.2976C77.0378 16.2976 78.1417 16.5139 79.0846 16.9466C80.0331 17.3792 80.7708 17.981 81.2978 18.752C81.8247 19.523 82.0965 20.4161 82.1132 21.4311H78.6603ZM92.8982 28.1289V20.7905H96.4426V33.5703H93.0397V31.249H92.9066C92.6181 31.9978 92.1383 32.5996 91.4672 33.0545C90.8015 33.5093 89.9889 33.7367 89.0293 33.7367C88.1751 33.7367 87.4235 33.5426 86.7746 33.1543C86.1256 32.766 85.6181 32.2141 85.252 31.4986C84.8914 30.783 84.7084 29.9261 84.7028 28.9276V20.7905H88.2472V28.2953C88.2528 29.0497 88.4552 29.646 88.8546 30.0841C89.254 30.5223 89.7892 30.7414 90.4604 30.7414C90.8875 30.7414 91.2869 30.6444 91.6585 30.4502C92.0302 30.2506 92.3297 29.9566 92.5571 29.5683C92.7901 29.18 92.9038 28.7002 92.8982 28.1289ZM99.3443 33.5703V16.5305H102.889V22.9371H102.997C103.152 22.5932 103.377 22.2437 103.671 21.8888C103.97 21.5282 104.359 21.2287 104.836 20.9902C105.318 20.7461 105.917 20.6241 106.633 20.6241C107.565 20.6241 108.424 20.8681 109.212 21.3563C110 21.8388 110.629 22.5682 111.101 23.5445C111.572 24.5152 111.808 25.7327 111.808 27.197C111.808 28.6226 111.578 29.8262 111.117 30.808C110.663 31.7842 110.041 32.5247 109.254 33.0295C108.472 33.5287 107.595 33.7783 106.624 33.7783C105.937 33.7783 105.351 33.6646 104.869 33.4372C104.392 33.2098 104.001 32.9241 103.696 32.5802C103.391 32.2308 103.158 31.8785 102.997 31.5235H102.839V33.5703H99.3443ZM102.814 27.1804C102.814 27.9403 102.919 28.6032 103.13 29.1689C103.341 29.7347 103.646 30.1757 104.045 30.4918C104.445 30.8025 104.93 30.9578 105.501 30.9578C106.078 30.9578 106.566 30.7997 106.966 30.4835C107.365 30.1618 107.667 29.7181 107.873 29.1523C108.083 28.581 108.189 27.9237 108.189 27.1804C108.189 26.4427 108.086 25.7937 107.881 25.2335C107.676 24.6732 107.373 24.235 106.974 23.9189C106.575 23.6027 106.084 23.4446 105.501 23.4446C104.924 23.4446 104.436 23.5972 104.037 23.9022C103.643 24.2073 103.341 24.64 103.13 25.2002C102.919 25.7604 102.814 26.4205 102.814 27.1804ZM124.806 24.4347L121.561 24.6344C121.506 24.3571 121.387 24.1075 121.204 23.8856C121.021 23.6582 120.779 23.4779 120.48 23.3448C120.186 23.2061 119.833 23.1368 119.423 23.1368C118.874 23.1368 118.411 23.2533 118.034 23.4862C117.656 23.7136 117.468 24.0187 117.468 24.4015C117.468 24.7065 117.59 24.9645 117.834 25.1752C118.078 25.386 118.497 25.5552 119.09 25.6828L121.403 26.1487C122.646 26.4038 123.572 26.8143 124.182 27.3801C124.792 27.9459 125.097 28.6891 125.097 29.6099C125.097 30.4475 124.851 31.1824 124.357 31.8148C123.869 32.4471 123.198 32.9408 122.343 33.2957C121.495 33.6452 120.516 33.8199 119.406 33.8199C117.715 33.8199 116.367 33.4677 115.363 32.7633C114.364 32.0533 113.779 31.0881 113.607 29.8678L117.093 29.6848C117.199 30.2006 117.454 30.5945 117.859 30.8662C118.264 31.1325 118.782 31.2656 119.415 31.2656C120.036 31.2656 120.535 31.1464 120.912 30.9078C121.295 30.6638 121.489 30.3504 121.495 29.9677C121.489 29.646 121.353 29.3825 121.087 29.1772C120.821 28.9665 120.41 28.8056 119.856 28.6947L117.643 28.2537C116.394 28.0041 115.465 27.5714 114.855 26.9558C114.251 26.3401 113.948 25.5552 113.948 24.6011C113.948 23.7802 114.17 23.073 114.614 22.4795C115.063 21.886 115.693 21.4284 116.503 21.1067C117.318 20.7849 118.272 20.6241 119.365 20.6241C120.979 20.6241 122.249 20.9652 123.175 21.6475C124.107 22.3297 124.651 23.2588 124.806 24.4347ZM133.104 33.8199C131.794 33.8199 130.668 33.5426 129.726 32.9879C128.788 32.4277 128.067 31.6511 127.562 30.6582C127.063 29.6654 126.813 28.5227 126.813 27.2303C126.813 25.9213 127.066 24.7731 127.571 23.7858C128.081 22.7929 128.805 22.0191 129.742 21.4644C130.68 20.9042 131.794 20.6241 133.087 20.6241C134.202 20.6241 135.178 20.8265 136.016 21.2315C136.853 21.6364 137.516 22.2049 138.004 22.9371C138.492 23.6693 138.761 24.529 138.811 25.5164H135.466C135.372 24.8785 135.123 24.3654 134.718 23.9771C134.318 23.5833 133.794 23.3864 133.145 23.3864C132.596 23.3864 132.116 23.5362 131.706 23.8357C131.301 24.1297 130.985 24.5595 130.757 25.1253C130.53 25.6911 130.416 26.3761 130.416 27.1804C130.416 27.9958 130.527 28.6891 130.749 29.2604C130.976 29.8318 131.295 30.2672 131.706 30.5667C132.116 30.8662 132.596 31.016 133.145 31.016C133.55 31.016 133.913 30.9328 134.235 30.7664C134.562 30.6 134.831 30.3587 135.042 30.0425C135.258 29.7208 135.4 29.3353 135.466 28.886H138.811C138.756 29.8623 138.489 30.722 138.012 31.4653C137.541 32.203 136.889 32.7799 136.057 33.1959C135.225 33.6119 134.241 33.8199 133.104 33.8199ZM141.081 33.5703V20.7905H144.517V23.0203H144.65C144.883 22.2271 145.274 21.6281 145.823 21.2231C146.372 20.8127 147.004 20.6074 147.72 20.6074C147.898 20.6074 148.089 20.6185 148.294 20.6407C148.499 20.6629 148.68 20.6934 148.835 20.7322V23.8773C148.669 23.8274 148.438 23.783 148.144 23.7442C147.85 23.7053 147.581 23.6859 147.337 23.6859C146.816 23.6859 146.35 23.7996 145.94 24.027C145.535 24.2489 145.213 24.5595 144.974 24.9589C144.741 25.3583 144.625 25.8187 144.625 26.3401V33.5703H141.081ZM150.667 33.5703V20.7905H154.212V33.5703H150.667ZM152.448 19.1431C151.921 19.1431 151.469 18.9684 151.092 18.6189C150.72 18.2639 150.534 17.8396 150.534 17.3459C150.534 16.8578 150.72 16.439 151.092 16.0896C151.469 15.7346 151.921 15.5571 152.448 15.5571C152.975 15.5571 153.424 15.7346 153.796 16.0896C154.173 16.439 154.362 16.8578 154.362 17.3459C154.362 17.8396 154.173 18.2639 153.796 18.6189C153.424 18.9684 152.975 19.1431 152.448 19.1431ZM157.118 33.5703V16.5305H160.662V22.9371H160.77C160.926 22.5932 161.15 22.2437 161.444 21.8888C161.744 21.5282 162.132 21.2287 162.609 20.9902C163.092 20.7461 163.691 20.6241 164.406 20.6241C165.338 20.6241 166.198 20.8681 166.985 21.3563C167.773 21.8388 168.403 22.5682 168.874 23.5445C169.346 24.5152 169.581 25.7327 169.581 27.197C169.581 28.6226 169.351 29.8262 168.891 30.808C168.436 31.7842 167.815 32.5247 167.027 33.0295C166.245 33.5287 165.369 33.7783 164.398 33.7783C163.71 33.7783 163.125 33.6646 162.642 33.4372C162.165 33.2098 161.774 32.9241 161.469 32.5802C161.164 32.2308 160.931 31.8785 160.77 31.5235H160.612V33.5703H157.118ZM160.587 27.1804C160.587 27.9403 160.693 28.6032 160.903 29.1689C161.114 29.7347 161.419 30.1757 161.819 30.4918C162.218 30.8025 162.703 30.9578 163.275 30.9578C163.852 30.9578 164.34 30.7997 164.739 30.4835C165.138 30.1618 165.441 29.7181 165.646 29.1523C165.857 28.581 165.962 27.9237 165.962 27.1804C165.962 26.4427 165.859 25.7937 165.654 25.2335C165.449 24.6732 165.147 24.235 164.747 23.9189C164.348 23.6027 163.857 23.4446 163.275 23.4446C162.698 23.4446 162.21 23.5972 161.81 23.9022C161.416 24.2073 161.114 24.64 160.903 25.2002C160.693 25.7604 160.587 26.4205 160.587 27.1804ZM177.771 33.8199C176.456 33.8199 175.324 33.5537 174.376 33.0212C173.433 32.4831 172.706 31.7232 172.196 30.7414C171.686 29.7541 171.431 28.5865 171.431 27.2386C171.431 25.924 171.686 24.7703 172.196 23.7774C172.706 22.7846 173.425 22.0108 174.351 21.4561C175.283 20.9014 176.375 20.6241 177.629 20.6241C178.472 20.6241 179.257 20.76 179.984 21.0318C180.716 21.298 181.354 21.7002 181.897 22.2382C182.446 22.7762 182.874 23.4529 183.179 24.2683C183.484 25.0782 183.636 26.0267 183.636 27.1138V28.0873H172.845V25.8908H180.3C180.3 25.3805 180.189 24.9284 179.967 24.5346C179.745 24.1408 179.437 23.8329 179.044 23.611C178.655 23.3836 178.203 23.2699 177.687 23.2699C177.149 23.2699 176.672 23.3947 176.256 23.6443C175.846 23.8884 175.524 24.2184 175.291 24.6344C175.058 25.0449 174.939 25.5025 174.933 26.0072V28.0956C174.933 28.728 175.05 29.2743 175.283 29.7347C175.521 30.1951 175.857 30.5501 176.29 30.7997C176.722 31.0493 177.235 31.1741 177.829 31.1741C178.223 31.1741 178.583 31.1186 178.91 31.0077C179.238 30.8968 179.518 30.7304 179.751 30.5085C179.984 30.2866 180.161 30.0148 180.283 29.6931L183.561 29.9094C183.395 30.6971 183.054 31.3849 182.538 31.9728C182.028 32.5552 181.368 33.0101 180.558 33.3373C179.754 33.6591 178.824 33.8199 177.771 33.8199ZM186.016 33.5703V16.5305H189.618V23.5611H196.932V16.5305H200.526V33.5703H196.932V26.5314H189.618V33.5703H186.016ZM211.625 28.1289V20.7905H215.17V33.5703H211.767V31.249H211.634C211.345 31.9978 210.865 32.5996 210.194 33.0545C209.529 33.5093 208.716 33.7367 207.757 33.7367C206.902 33.7367 206.151 33.5426 205.502 33.1543C204.853 32.766 204.345 32.2141 203.979 31.4986C203.619 30.783 203.436 29.9261 203.43 28.9276V20.7905H206.974V28.2953C206.98 29.0497 207.182 29.646 207.582 30.0841C207.981 30.5223 208.516 30.7414 209.188 30.7414C209.615 30.7414 210.014 30.6444 210.386 30.4502C210.757 30.2506 211.057 29.9566 211.284 29.5683C211.517 29.18 211.631 28.7002 211.625 28.1289ZM218.071 33.5703V16.5305H221.616V22.9371H221.724C221.879 22.5932 222.104 22.2437 222.398 21.8888C222.698 21.5282 223.086 21.2287 223.563 20.9902C224.045 20.7461 224.644 20.6241 225.36 20.6241C226.292 20.6241 227.152 20.8681 227.939 21.3563C228.727 21.8388 229.356 22.5682 229.828 23.5445C230.299 24.5152 230.535 25.7327 230.535 27.197C230.535 28.6226 230.305 29.8262 229.845 30.808C229.39 31.7842 228.769 32.5247 227.981 33.0295C227.199 33.5287 226.322 33.7783 225.352 33.7783C224.664 33.7783 224.079 33.6646 223.596 33.4372C223.119 33.2098 222.728 32.9241 222.423 32.5802C222.118 32.2308 221.885 31.8785 221.724 31.5235H221.566V33.5703H218.071ZM221.541 27.1804C221.541 27.9403 221.646 28.6032 221.857 29.1689C222.068 29.7347 222.373 30.1757 222.772 30.4918C223.172 30.8025 223.657 30.9578 224.228 30.9578C224.805 30.9578 225.293 30.7997 225.693 30.4835C226.092 30.1618 226.394 29.7181 226.6 29.1523C226.81 28.581 226.916 27.9237 226.916 27.1804C226.916 26.4427 226.813 25.7937 226.608 25.2335C226.403 24.6732 226.1 24.235 225.701 23.9189C225.302 23.6027 224.811 23.4446 224.228 23.4446C223.652 23.4446 223.163 23.5972 222.764 23.9022C222.37 24.2073 222.068 24.64 221.857 25.2002C221.646 25.7604 221.541 26.4205 221.541 27.1804Z" fill="#111111"/>
<defs>
<filter id="filter0_dd_50_927" x="0.241211" y="0.403912" width="52.8594" height="52.8594" filterUnits="userSpaceOnUse" color-interpolation-filters="sRGB">
<feFlood flood-opacity="0" result="BackgroundImageFix"/>
<feColorMatrix in="SourceAlpha" type="matrix" values="0 0 0 0 0 0 0 0 0 0 0 0 0 0 0 0 0 0 127 0" result="hardAlpha"/>
<feOffset dy="1"/>
<feGaussianBlur stdDeviation="1"/>
<feColorMatrix type="matrix" values="0 0 0 0 0.0627451 0 0 0 0 0.0941176 0 0 0 0 0.156863 0 0 0 0.06 0"/>
<feBlend mode="normal" in2="BackgroundImageFix" result="effect1_dropShadow_50_927"/>
<feColorMatrix in="SourceAlpha" type="matrix" values="0 0 0 0 0 0 0 0 0 0 0 0 0 0 0 0 0 0 127 0" result="hardAlpha"/>
<feOffset dy="1"/>
<feGaussianBlur stdDeviation="1.5"/>
<feColorMatrix type="matrix" values="0 0 0 0 0.0627451 0 0 0 0 0.0941176 0 0 0 0 0.156863 0 0 0 0.1 0"/>
<feBlend mode="normal" in2="effect1_dropShadow_50_927" result="effect2_dropShadow_50_927"/>
<feBlend mode="normal" in="SourceGraphic" in2="effect2_dropShadow_50_927" result="shape"/>
</filter>
<linearGradient id="paint0_linear_50_927" x1="23.4297" y1="0" x2="23.4297" y2="46.8594" gradientUnits="userSpaceOnUse">
<stop stop-color="white"/>
<stop offset="1" stop-color="#D0D5DD"/>
</linearGradient>
<linearGradient id="paint1_linear_50_927" x1="22.5622" y1="33.3058" x2="22.5622" y2="9.96252" gradientUnits="userSpaceOnUse">
<stop stop-color="#7E0000"/>
<stop offset="1" stop-color="#E40000"/>
</linearGradient>
<linearGradient id="paint2_linear_50_927" x1="41.8417" y1="27.2245" x2="23.2902" y2="8.67158" gradientUnits="userSpaceOnUse">
<stop stop-color="#B40101"/>
<stop offset="1" stop-color="#5E0101"/>
</linearGradient>
<linearGradient id="paint3_linear_50_927" x1="23.7695" y1="39.235" x2="38.3955" y2="24.6091" gradientUnits="userSpaceOnUse">
<stop stop-color="#B40000"/>
<stop offset="1" stop-color="#4E0000"/>
</linearGradient>
</defs>
</svg>
