<svg width="25" height="15" viewBox="0 0 25 15" fill="none" xmlns="http://www.w3.org/2000/svg">
<path d="M0.583008 14.4998C0.745508 12.5679 1.33683 10.7894 2.35697 9.16439C3.37711 7.53939 4.73579 6.24842 6.43301 5.29147L4.42884 1.8248C4.32051 1.6623 4.29343 1.49078 4.34759 1.31022C4.40176 1.12967 4.51912 0.994249 4.69968 0.903971C4.84412 0.813694 5.00662 0.795638 5.18718 0.849805C5.36773 0.903971 5.51218 1.0123 5.62051 1.1748L7.62468 4.64147C9.17745 3.99147 10.8025 3.66647 12.4997 3.66647C14.1969 3.66647 15.8219 3.99147 17.3747 4.64147L19.3788 1.1748C19.4872 1.0123 19.6316 0.903971 19.8122 0.849805C19.9927 0.795638 20.1552 0.813694 20.2997 0.903971C20.4802 0.994249 20.5976 1.12967 20.6518 1.31022C20.7059 1.49078 20.6788 1.6623 20.5705 1.8248L18.5663 5.29147C20.2636 6.24842 21.6222 7.53939 22.6424 9.16439C23.6625 10.7894 24.2538 12.5679 24.4163 14.4998H0.583008ZM7.08301 11.5206C7.46218 11.5206 7.78266 11.3897 8.04447 11.1279C8.30627 10.8661 8.43718 10.5456 8.43718 10.1665C8.43718 9.7873 8.30627 9.46682 8.04447 9.20501C7.78266 8.94321 7.46218 8.8123 7.08301 8.8123C6.70384 8.8123 6.38336 8.94321 6.12155 9.20501C5.85975 9.46682 5.72884 9.7873 5.72884 10.1665C5.72884 10.5456 5.85975 10.8661 6.12155 11.1279C6.38336 11.3897 6.70384 11.5206 7.08301 11.5206ZM17.9163 11.5206C18.2955 11.5206 18.616 11.3897 18.8778 11.1279C19.1396 10.8661 19.2705 10.5456 19.2705 10.1665C19.2705 9.7873 19.1396 9.46682 18.8778 9.20501C18.616 8.94321 18.2955 8.8123 17.9163 8.8123C17.5372 8.8123 17.2167 8.94321 16.9549 9.20501C16.6931 9.46682 16.5622 9.7873 16.5622 10.1665C16.5622 10.5456 16.6931 10.8661 16.9549 11.1279C17.2167 11.3897 17.5372 11.5206 17.9163 11.5206Z" fill="#A0A3DB"/>
</svg>
