<svg width="25" height="24" viewBox="0 0 25 24" fill="none" xmlns="http://www.w3.org/2000/svg">
<path d="M17.1465 12.512C17.1385 11.0372 17.8055 9.92403 19.1558 9.10423C18.4003 8.02323 17.259 7.42848 15.752 7.31194C14.3254 7.19942 12.7662 8.14379 12.1956 8.14379C11.5928 8.14379 10.2104 7.35213 9.12539 7.35213C6.88302 7.3883 4.5 9.1404 4.5 12.7049C4.5 13.7578 4.69289 14.8455 5.07868 15.968C5.59306 17.4428 7.44964 21.0595 9.3866 20.9993C10.3993 20.9751 11.1146 20.2799 12.4327 20.2799C13.7106 20.2799 14.3737 20.9993 15.5029 20.9993C17.4559 20.9711 19.1357 17.6839 19.626 16.2051C17.0058 14.9714 17.1465 12.5884 17.1465 12.512ZM14.872 5.91348C15.9691 4.61145 15.8686 3.42597 15.8364 3C14.868 3.05626 13.7468 3.65905 13.1078 4.40249C12.4046 5.19817 11.9906 6.18272 12.0791 7.29185C13.1279 7.37222 14.0843 6.83373 14.872 5.91348Z" fill="#A0A3DB"/>
</svg>
