<svg width="25" height="24" viewBox="0 0 25 24" fill="none" xmlns="http://www.w3.org/2000/svg">
<path fill-rule="evenodd" clip-rule="evenodd" d="M12.5 21C17.1945 21 21 17.1945 21 12.5C21 11.5535 20.8453 10.643 20.5597 9.79266C20.5457 9.75082 20.5043 9.72466 20.4603 9.72957L15.7151 10.2568C15.643 10.2648 15.6062 10.348 15.6464 10.4083C16.0453 11.0072 16.2778 11.7265 16.2778 12.5C16.2778 13.3187 16.0173 14.0767 15.5747 14.6955L12.0211 20.8505C11.986 20.9111 12.0269 20.9873 12.0969 20.9907C12.2305 20.9969 12.3649 21 12.5 21ZM10.8694 20.7683C10.8517 20.8088 10.8078 20.8317 10.7644 20.8226C6.90237 20.0215 4 16.5996 4 12.5C4 10.8085 4.49404 9.23241 5.34583 7.90821C5.38361 7.84937 5.46993 7.85211 5.50497 7.91274L9.07497 14.0962C9.16781 14.2949 9.27737 14.4842 9.40184 14.6623L9.41299 14.6816C9.41327 14.6821 9.41393 14.6823 9.4145 14.682C9.41497 14.6818 9.41563 14.6819 9.41592 14.6823C10.1004 15.6477 11.2266 16.2778 12.5 16.2778C12.5618 16.2778 12.6233 16.2763 12.6843 16.2733C12.756 16.2699 12.8084 16.3428 12.7796 16.4087L10.8694 20.7683ZM12.5 4C9.95302 4 7.66775 5.12021 6.10989 6.89482C6.0808 6.92797 6.07891 6.97679 6.10507 7.01221L8.93708 10.862C8.98025 10.9206 9.0711 10.9105 9.10302 10.845C9.71653 9.58809 11.0071 8.72222 12.5 8.72222H19.964C20.0341 8.72222 20.0797 8.64846 20.0473 8.58632C18.6314 5.86131 15.7831 4 12.5 4ZM12.5 15.3333C14.0648 15.3333 15.3333 14.0648 15.3333 12.5C15.3333 10.9351 14.0648 9.66667 12.5 9.66667C10.9351 9.66667 9.66667 10.9351 9.66667 12.5C9.66667 14.0648 10.9351 15.3333 12.5 15.3333Z" fill="#A0A3DB"/>
</svg>
